<svg width="1079" height="220" viewBox="0 0 1079 220" fill="none" xmlns="http://www.w3.org/2000/svg">
<path fill-rule="evenodd" clip-rule="evenodd" d="M128 18.3335C77.4 18.3335 36.3333 59.4002 36.3333 110C36.3333 160.6 77.4 201.667 128 201.667C178.6 201.667 219.667 160.6 219.667 110C219.667 59.4002 178.6 18.3335 128 18.3335ZM172.917 141.992L160.083 154.825C158.25 156.659 155.408 156.659 153.575 154.825L122.317 123.567C111.133 127.509 98.1167 125.125 89.1333 116.142C78.9583 105.967 77.2166 90.5669 83.725 78.5586L105.267 100.1L118.192 87.1753L96.65 65.7252C108.75 59.2169 124.058 60.9586 134.233 71.1336C143.217 80.1169 145.6 93.1336 141.658 104.317L172.917 135.575C174.658 137.317 174.658 140.25 172.917 141.992Z" fill="#4285F4"/>
<path d="M265.35 89.05C268.05 85.05 271.75 81.8 276.45 79.3C281.25 76.8 286.7 75.55 292.8 75.55C299.9 75.55 306.3 77.3 312 80.8C317.8 84.3 322.35 89.3 325.65 95.8C329.05 102.2 330.75 109.65 330.75 118.15C330.75 126.65 329.05 134.2 325.65 140.8C322.35 147.3 317.8 152.35 312 155.95C306.3 159.55 299.9 161.35 292.8 161.35C286.6 161.35 281.15 160.15 276.45 157.75C271.85 155.25 268.15 152.05 265.35 148.15V160H244.35V49H265.35V89.05ZM309.3 118.15C309.3 113.15 308.25 108.85 306.15 105.25C304.15 101.55 301.45 98.75 298.05 96.85C294.75 94.95 291.15 94 287.25 94C283.45 94 279.85 95 276.45 97C273.15 98.9 270.45 101.7 268.35 105.4C266.35 109.1 265.35 113.45 265.35 118.45C265.35 123.45 266.35 127.8 268.35 131.5C270.45 135.2 273.15 138.05 276.45 140.05C279.85 141.95 283.45 142.9 287.25 142.9C291.15 142.9 294.75 141.9 298.05 139.9C301.45 137.9 304.15 135.05 306.15 131.35C308.25 127.65 309.3 123.25 309.3 118.15ZM428.26 116.65C428.26 119.65 428.06 122.35 427.66 124.75H366.91C367.41 130.75 369.51 135.45 373.21 138.85C376.91 142.25 381.46 143.95 386.86 143.95C394.66 143.95 400.21 140.6 403.51 133.9H426.16C423.76 141.9 419.16 148.5 412.36 153.7C405.56 158.8 397.21 161.35 387.31 161.35C379.31 161.35 372.11 159.6 365.71 156.1C359.41 152.5 354.46 147.45 350.86 140.95C347.36 134.45 345.61 126.95 345.61 118.45C345.61 109.85 347.36 102.3 350.86 95.8C354.36 89.3 359.26 84.3 365.56 80.8C371.86 77.3 379.11 75.55 387.31 75.55C395.21 75.55 402.26 77.25 408.46 80.65C414.76 84.05 419.61 88.9 423.01 95.2C426.51 101.4 428.26 108.55 428.26 116.65ZM406.51 110.65C406.41 105.25 404.46 100.95 400.66 97.75C396.86 94.45 392.21 92.8 386.71 92.8C381.51 92.8 377.11 94.4 373.51 97.6C370.01 100.7 367.86 105.05 367.06 110.65H406.51ZM494.638 75.7C504.538 75.7 512.538 78.85 518.638 85.15C524.738 91.35 527.788 100.05 527.788 111.25V160H506.788V114.1C506.788 107.5 505.138 102.45 501.838 98.95C498.538 95.35 494.038 93.55 488.338 93.55C482.538 93.55 477.938 95.35 474.538 98.95C471.238 102.45 469.588 107.5 469.588 114.1V160H448.588V76.9H469.588V87.25C472.388 83.65 475.938 80.85 480.238 78.85C484.638 76.75 489.438 75.7 494.638 75.7ZM585.308 75.55C591.508 75.55 596.958 76.8 601.658 79.3C606.358 81.7 610.058 84.85 612.758 88.75V76.9H633.908V160.6C633.908 168.3 632.358 175.15 629.258 181.15C626.158 187.25 621.508 192.05 615.308 195.55C609.108 199.15 601.608 200.95 592.808 200.95C581.008 200.95 571.308 198.2 563.708 192.7C556.208 187.2 551.958 179.7 550.958 170.2H571.808C572.908 174 575.258 177 578.858 179.2C582.558 181.5 587.008 182.65 592.208 182.65C598.308 182.65 603.258 180.8 607.058 177.1C610.858 173.5 612.758 168 612.758 160.6V147.7C610.058 151.6 606.308 154.85 601.508 157.45C596.808 160.05 591.408 161.35 585.308 161.35C578.308 161.35 571.908 159.55 566.108 155.95C560.308 152.35 555.708 147.3 552.308 140.8C549.008 134.2 547.358 126.65 547.358 118.15C547.358 109.75 549.008 102.3 552.308 95.8C555.708 89.3 560.258 84.3 565.958 80.8C571.758 77.3 578.208 75.55 585.308 75.55ZM612.758 118.45C612.758 113.35 611.758 109 609.758 105.4C607.758 101.7 605.058 98.9 601.658 97C598.258 95 594.608 94 590.708 94C586.808 94 583.208 94.95 579.908 96.85C576.608 98.75 573.908 101.55 571.808 105.25C569.808 108.85 568.808 113.15 568.808 118.15C568.808 123.15 569.808 127.55 571.808 131.35C573.908 135.05 576.608 137.9 579.908 139.9C583.308 141.9 586.908 142.9 590.708 142.9C594.608 142.9 598.258 141.95 601.658 140.05C605.058 138.05 607.758 135.25 609.758 131.65C611.758 127.95 612.758 123.55 612.758 118.45ZM708.618 160L680.418 124.6V160H659.418V49H680.418V112.15L708.318 76.9H735.618L699.018 118.6L735.918 160H708.618ZM788.916 161.35C780.916 161.35 773.716 159.6 767.316 156.1C760.916 152.5 755.866 147.45 752.166 140.95C748.566 134.45 746.766 126.95 746.766 118.45C746.766 109.95 748.616 102.45 752.316 95.95C756.116 89.45 761.266 84.45 767.766 80.95C774.266 77.35 781.516 75.55 789.516 75.55C797.516 75.55 804.766 77.35 811.266 80.95C817.766 84.45 822.866 89.45 826.566 95.95C830.366 102.45 832.266 109.95 832.266 118.45C832.266 126.95 830.316 134.45 826.416 140.95C822.616 147.45 817.416 152.5 810.816 156.1C804.316 159.6 797.016 161.35 788.916 161.35ZM788.916 143.05C792.716 143.05 796.266 142.15 799.566 140.35C802.966 138.45 805.666 135.65 807.666 131.95C809.666 128.25 810.666 123.75 810.666 118.45C810.666 110.55 808.566 104.5 804.366 100.3C800.266 96 795.216 93.85 789.216 93.85C783.216 93.85 778.166 96 774.066 100.3C770.066 104.5 768.066 110.55 768.066 118.45C768.066 126.35 770.016 132.45 773.916 136.75C777.916 140.95 782.916 143.05 788.916 143.05ZM873.67 49V160H852.67V49H873.67Z" fill="#4285F4"/>
</svg>
